<svg width="92" height="54" viewBox="0 0 92 54" fill="none" xmlns="http://www.w3.org/2000/svg">
<path d="M45.8113 0.558594L50.264 14.0437L63.2742 2.57348L58.4876 16.0192L78.0776 8.30745L64.7825 19.6687L87.9684 16.8933L68.1892 24.4381L91.4427 27.0188L68.1892 29.5994L87.9684 37.1442L64.7825 34.3688L78.0776 45.7278L58.4876 38.0183L63.2742 51.4641L50.264 39.9938L45.8113 53.4789L41.3609 39.9938L28.3507 51.4641L33.1373 38.0183L13.5472 45.7278L26.8423 34.3688L3.6565 37.1442L23.4357 29.5994L0.182129 27.0188L23.4357 24.4381L3.6565 16.8933L26.8423 19.6687L13.5472 8.30745L33.1373 16.0192L28.3507 2.57348L41.3609 14.0437L45.8113 0.558594Z" fill="black"/>
</svg>
