<svg width="105" height="19" viewBox="0 0 105 19" fill="none" xmlns="http://www.w3.org/2000/svg">
<path fill-rule="evenodd" clip-rule="evenodd" d="M4.98444 7.21365L4.98444 4.54192L14.0683 4.54192L14.0683 7.21365L14.065 7.21365L14.065 13.8933L11.6605 13.8933L11.6605 8.82181L5.47761 15.0047L3.75585 13.2829L9.82511 7.21365L4.98444 7.21365Z" fill="black"/>
<path d="M18.168 14.9568H22.5721C25.0188 14.9568 26.6605 14.0192 27.4339 12.3708C27.797 11.6147 27.9549 10.7224 27.9549 9.61843C27.9549 8.51445 27.797 7.6222 27.4339 6.86605C26.6763 5.21765 25.0188 4.28003 22.5721 4.28003H18.168V14.9568ZM20.5042 13.0362V6.20064H22.209C23.756 6.20064 24.6873 6.71482 25.1293 7.69781C25.3661 8.19687 25.4766 8.78666 25.4766 9.61843C25.4766 10.4502 25.3661 11.04 25.1293 11.539C24.6873 12.5069 23.7718 13.0362 22.209 13.0362H20.5042Z" fill="black"/>
<path d="M29.9755 14.9568H37.1105V13.0967H32.3117V10.4502H37.0631V8.62031H32.3117V6.14015H37.1105V4.28003H29.9755V14.9568Z" fill="black"/>
<path d="M43.2354 15.229C45.3506 15.229 46.9292 14.5334 47.529 13.2479C47.7184 12.8396 47.8289 12.3859 47.8289 11.8566C47.8289 11.3424 47.7342 10.919 47.5764 10.556C47.0555 9.4672 45.7926 9.01351 44.3404 8.63544C42.9986 8.28761 41.7516 8.09101 41.4201 7.41048C41.357 7.24412 41.3412 7.10802 41.3412 6.92654C41.3412 6.74507 41.357 6.60896 41.4359 6.44261C41.6569 5.9738 42.2725 5.68646 43.0776 5.68646C43.93 5.68646 44.4825 5.9738 44.7508 6.51822C44.8771 6.79044 44.9244 7.09289 44.9244 7.47097H47.3396C47.3396 6.86605 47.2449 6.38212 47.0397 5.9133C46.4556 4.67322 45.0665 4.00781 43.1723 4.00781C41.2307 4.00781 39.7626 4.71859 39.2259 5.89818C39.0365 6.29138 38.926 6.6997 38.926 7.16851C38.926 7.65244 39.0365 8.03052 39.1786 8.36322C39.6364 9.34621 40.7571 9.84527 42.0515 10.178C43.4091 10.5561 44.7666 10.7526 45.1454 11.5542C45.2244 11.7205 45.2717 11.8869 45.2717 12.1137C45.2717 12.3103 45.2244 12.4918 45.1297 12.7035C44.8929 13.2026 44.2299 13.4899 43.3143 13.4899C42.3356 13.4899 41.7042 13.1723 41.4201 12.5825C41.2938 12.3103 41.2465 11.9776 41.2465 11.5995H38.6735C38.6892 12.2045 38.784 12.7489 39.0049 13.2177C39.589 14.4426 41.0097 15.229 43.2354 15.229Z" fill="black"/>
<path d="M49.7213 14.9568H52.0576V4.28003H49.7213V14.9568Z" fill="black"/>
<path d="M59.6627 9.14962V10.8585H62.4094C62.3936 11.3273 62.3147 11.66 62.1568 12.0079C61.7464 12.8547 60.8782 13.2782 59.647 13.2782C58.3526 13.2782 57.4212 12.7942 56.9635 11.8264C56.6951 11.2517 56.5846 10.6317 56.5846 9.61843C56.5846 8.60519 56.6951 7.97003 56.9635 7.41048C57.4054 6.45773 58.3052 5.95867 59.5838 5.95867C60.3889 5.95867 61.0834 6.15527 61.5412 6.56359C61.9358 6.8963 62.1568 7.36511 62.2358 7.9549H64.6509C64.5562 6.8358 64.0668 5.86794 63.2776 5.1874C62.3936 4.41613 61.1308 4.00781 59.6154 4.00781C57.1687 4.00781 55.4954 5.00593 54.6588 6.76019C54.2957 7.53146 54.1063 8.46908 54.1063 9.61843C54.1063 10.7678 54.2957 11.7054 54.6588 12.4767C55.4796 14.2158 57.1687 15.229 59.5838 15.229C61.8411 15.229 63.3881 14.367 64.1773 12.7035C64.572 11.8566 64.7456 10.8888 64.7456 9.87552V9.14962H59.6627Z" fill="black"/>
<path d="M66.7695 14.9568H69.0425V7.63732L73.9518 14.9568H76.3511V4.28003H74.0781V11.6147L69.153 4.28003H66.7695V14.9568Z" fill="black"/>
<path d="M87.345 15.229C88.8446 15.229 90.1706 14.7905 91.0703 13.989C91.8912 13.2782 92.3963 12.2498 92.4279 11.0249H89.9496C89.918 11.7205 89.6497 12.2498 89.2234 12.6128C88.7499 13.0211 88.0869 13.2479 87.2503 13.2479C86.0348 13.2479 85.1666 12.764 84.7246 11.8264C84.4563 11.2668 84.3616 10.5712 84.3616 9.61843C84.3616 8.65056 84.4721 7.98515 84.7246 7.4256C85.1508 6.51822 85.9875 5.98892 87.2503 5.98892C88.0869 5.98892 88.7025 6.21576 89.1761 6.60896C89.6181 7.00216 89.8706 7.54658 89.9022 8.25736H92.3805C92.3332 7.0324 91.8596 5.9738 90.9914 5.23277C90.0916 4.44638 88.8288 4.00781 87.3292 4.00781C84.8983 4.00781 83.225 5.03617 82.4358 6.74507C82.0569 7.56171 81.8675 8.49933 81.8675 9.61843C81.8675 10.7375 82.0411 11.6751 82.42 12.4918C83.2408 14.2309 84.9298 15.229 87.345 15.229Z" fill="black"/>
<path d="M99.5372 15.229C101.968 15.229 103.61 14.2309 104.415 12.5372C104.809 11.7205 104.999 10.7073 104.999 9.61843C104.999 8.52957 104.809 7.53146 104.415 6.6997C103.626 5.02105 101.968 4.00781 99.553 4.00781C97.122 4.00781 95.4488 5.02105 94.6595 6.71482C94.2807 7.54658 94.0912 8.5447 94.0912 9.61843C94.0912 10.7073 94.2807 11.7054 94.6753 12.522C95.4646 14.2309 97.122 15.229 99.5372 15.229ZM99.553 13.2177C98.2112 13.2177 97.3746 12.6581 96.9484 11.7508C96.68 11.161 96.5695 10.5107 96.5695 9.61843C96.5695 8.72617 96.68 8.07589 96.9484 7.48609C97.3746 6.57871 98.2112 6.01917 99.5372 6.01917C100.879 6.01917 101.716 6.57871 102.142 7.48609C102.426 8.07589 102.521 8.72617 102.521 9.61843C102.521 10.5107 102.41 11.161 102.142 11.7356C101.716 12.6581 100.895 13.2177 99.553 13.2177Z" fill="black"/>
</svg>
