<svg width="253" height="305" viewBox="0 0 253 305" fill="none" xmlns="http://www.w3.org/2000/svg">
<path d="M14.7105 127.02L14.1779 125.58L13.6453 127.02L10.9089 134.415L3.51385 137.151L2.07446 137.684L3.51385 138.216L10.9089 140.953L13.6453 148.348L14.1779 149.787L14.7105 148.348L17.4469 140.953L24.8419 138.216L26.2813 137.684L24.8419 137.151L17.4469 134.415L14.7105 127.02Z" fill="#FF5500" stroke="black" stroke-width="1.13584"/>
<path d="M218.964 204.924L218.432 203.485L217.899 204.924L215.163 212.319L207.768 215.055L206.328 215.588L207.768 216.121L215.163 218.857L217.899 226.252L218.432 227.691L218.964 226.252L221.701 218.857L229.096 216.121L230.535 215.588L229.096 215.055L221.701 212.319L218.964 204.924Z" fill="#FF5500" stroke="black" stroke-width="1.13584"/>
<path d="M195.715 101.039L57.3913 100.09C58.0222 111.012 58.6831 117.091 62.1365 127.612C105.081 138.052 138.871 137.781 190.021 129.036C193.239 119.594 194.468 113.382 195.715 101.039Z" fill="#ECEFF1"/>
<path d="M57.6285 104.834C57.6285 118.593 87.9913 129.984 126.909 129.984C165.827 129.984 195.715 115.745 195.715 101.987C195.715 88.2278 166.057 83.7175 126.909 82.0566C75.1859 86.5646 56.9167 87.2764 57.6285 104.834Z" fill="#ECEFF1"/>
<path d="M190.021 128.322C140.591 137.47 112.696 137.325 62.611 128.322C65.8725 166.574 72.0428 209.703 76.0763 216.346C123.766 229.396 147.662 228.252 178.395 215.397C184.815 182.189 187.303 163.062 190.021 128.322Z" fill="#FF80AB"/>
<path d="M197.327 66.5342C195.078 69.8054 196.463 72.7585 202.669 77.0249C208.876 81.2914 218.585 81.6813 220.834 78.4101C223.082 75.1388 218.843 72.6026 212.637 68.3361C206.43 64.0697 199.576 63.2629 197.327 66.5342Z" fill="#C4C4C4"/>
<path d="M222.287 96.5293H205.204C203.069 112.663 197.033 123.466 188.833 139.474L186.223 166.284C201.108 152.709 209.95 136.389 222.287 96.5293Z" fill="#ECEFF1"/>
<ellipse rx="9.49047" ry="4.9825" transform="matrix(-0.939067 0.343735 0.343735 0.939067 226.32 90.8356)" fill="#ECEFF1"/>
<path d="M221.575 81.4231C221.575 88.63 224.415 91.6242 232.015 91.6242C239.615 91.6242 247.911 82.2224 247.911 75.0154C247.911 67.8085 242.936 68.3737 235.336 68.3737C227.736 68.3737 221.575 74.2161 221.575 81.4231Z" fill="#ECEFF1"/>
<path d="M195.993 65.208C193.744 68.4793 193.066 74.7063 199.273 78.9728C205.479 83.2393 217.251 80.3552 219.5 77.0839C221.748 73.8126 217.509 71.2765 211.303 67.01C205.096 62.7435 198.242 61.9367 195.993 65.208Z" fill="#ECEFF1"/>
<path d="M225.371 50.1027C221.338 61.9667 217.663 71.081 223.258 73.6548C228.853 76.2285 236.285 72.6438 239.916 60.3049C244.516 50.3052 245.511 40.0161 239.916 37.4424C234.321 34.8686 229.971 40.103 225.371 50.1027Z" fill="#ECEFF1"/>
<path d="M202.436 50.1422C202.436 71.6456 206.233 72.2019 213.745 71.6456C221.258 71.0892 222.409 64.6865 219.202 52.1623C218.389 41.1854 219.202 33.8928 213.746 31.4725C206.233 32.0289 204.492 36.2661 202.436 50.1422Z" fill="#ECEFF1"/>
<path d="M202.966 85.1418C206.153 100.327 202.331 108.156 211.373 108.156C220.414 108.156 221.338 92.0223 235.708 85.1418C235.708 70.7278 228.378 59.043 219.337 59.043C210.295 59.043 202.966 70.7278 202.966 85.1418Z" fill="#ECEFF1"/>
<path d="M32.2422 98.123H50.5113C52.6467 114.257 57.4963 125.06 65.6961 141.067L68.306 167.878C53.4212 154.303 44.5798 137.983 32.2422 98.123Z" fill="#ECEFF1"/>
<path d="M51.459 146.829L55.967 118.357C59.7631 133.542 67.4599 140.075 75.6597 156.082C76.837 163.909 75.4305 167.039 70.2027 171.03C56.4415 156.557 66.6437 170.318 51.459 146.829Z" fill="#ECEFF1"/>
<ellipse cx="28.5486" cy="93.106" rx="10.0425" ry="5.50089" transform="rotate(20.1046 28.5486 93.106)" fill="#ECEFF1"/>
<path d="M32.9369 83.9559C32.9369 91.1629 30.0975 94.1571 22.4974 94.1571C14.8973 94.1571 8.02441 85.6973 8.02441 78.4903C8.02441 71.2833 13.2613 70.1942 20.5993 71.8485C28.1994 71.8485 32.9369 76.7489 32.9369 83.9559Z" fill="#ECEFF1"/>
<path d="M59.6106 68.5283C61.8593 71.7996 62.5376 78.0266 56.3309 82.2931C50.1243 86.5596 38.3526 83.6755 36.1039 80.4042C33.8552 77.1329 38.0942 74.5968 44.3009 70.3303C50.5075 66.0638 57.3619 65.257 59.6106 68.5283Z" fill="#ECEFF1"/>
<path d="M29.1572 51.6957C33.1907 63.5597 36.8657 72.674 31.2706 75.2478C25.6754 77.8215 18.2431 74.2368 14.6129 61.8979C10.013 51.8981 10.0379 43.112 15.633 40.5383C21.2281 37.9645 24.5574 41.6959 29.1572 51.6957Z" fill="#ECEFF1"/>
<path d="M50.7484 52.8737C57.3917 75.6504 48.2953 73.7981 40.7831 73.2418C33.2709 72.6854 34.6146 67.109 34.1401 52.8737C34.9531 41.8967 32.7169 37.5001 38.1735 35.0798C45.0541 36.7395 48.6922 38.9976 50.7484 52.8737Z" fill="#ECEFF1"/>
<path d="M52.4096 86.7338C51.9351 95.1056 52.1979 109.748 43.1564 109.748C34.1149 109.748 33.1914 93.6143 18.8213 86.7338C18.8213 72.3198 25.8107 63.3125 34.8522 63.3125C43.8937 63.3125 52.4096 72.3198 52.4096 86.7338Z" fill="#ECEFF1"/>
<ellipse rx="2.84714" ry="6.75139" transform="matrix(-1 0 0 1 86.812 293.822)" fill="#ECEFF1"/>
<path d="M51.6971 273.317C58.8152 289.571 64.746 303.574 79.2194 304.574C93.6928 305.574 85.6259 285.57 87.7613 274.318C124.3 259.565 92.1463 249.812 75.8979 249.812C54.3074 253.813 50.9866 256.314 51.6971 273.317Z" fill="#ECEFF1"/>
<path d="M123.351 227.557L91.7948 226.057C90.1339 247.311 73.5256 250.562 57.8664 253.812L94.8792 271.316C111.731 267.439 117.567 256.926 123.351 227.557Z" fill="#ECEFF1"/>
<path d="M149.212 283.731C154.906 294.17 154.431 299.39 165.108 304.61C182.929 304.61 202.121 288.912 202.121 278.036C200.935 266.648 181.242 273.291 175.073 267.834C157.252 267.834 149.212 272.855 149.212 283.731Z" fill="#ECEFF1"/>
<path d="M159.415 222.99L133.316 234.853L150.874 286.339L175.312 267.833L159.415 222.99Z" fill="#ECEFF1"/>
<path d="M62.0069 128.348C139.953 143.863 189.97 127.965 189.97 127.965C189.97 127.965 184.667 193.395 178.549 214.474C178.203 215.142 177.658 215.686 176.991 216.033C170.103 219.459 126.456 235.682 76.3136 215.696C71.6674 209.656 68.1904 178.965 66.5987 167.84M62.4715 128.348C62.4774 129.496 63.2707 133.338 63.4007 135.317" stroke="black" stroke-width="1.4586" stroke-miterlimit="10" stroke-linejoin="round"/>
<path d="M186.443 166.023C186.443 166.023 209.11 148.532 220.625 101.101C220.934 99.7697 221.63 98.559 222.625 97.6214C223.619 96.6837 224.869 96.061 226.217 95.8314C228.524 95.4864 231.716 94.3373 235.713 90.709" stroke="black" stroke-width="1.4586" stroke-miterlimit="10" stroke-linejoin="round"/>
<path d="M224.898 89.4706C221.227 85.5638 222.924 78.0052 228.688 72.5882C234.453 67.1711 242.102 65.9469 245.773 69.8537C249.445 73.7606 247.748 81.3191 241.983 86.7362C236.219 92.1532 228.569 93.3775 224.898 89.4706Z" stroke="black" stroke-width="1.4586" stroke-miterlimit="10" stroke-linejoin="round"/>
<path d="M237.114 67.8862C237.329 65.8638 250.284 44.5815 239.494 37.3605C228.704 30.1395 224.362 61.3552 221.09 59.8562C217.819 58.3573 223.065 32.3046 212.12 31.3053C201.176 30.306 202.258 60.7722 202.401 62.8065C202.544 64.8408 225.991 68.6713 220.674 77.4032C215.356 86.135 197.488 80.6746 194.621 74.2745C191.754 67.8743 199.261 62.0808 202.627 63.1634" stroke="black" stroke-width="1.4586" stroke-miterlimit="10" stroke-linejoin="round"/>
<path d="M202.556 80.3438C202.768 84.3417 203.57 92.9256 204.936 96.6888C206.909 102.43 192.707 130.815 189.196 137.687" stroke="black" stroke-width="1.4586" stroke-miterlimit="10" stroke-linecap="round" stroke-linejoin="round"/>
<path d="M68.7766 99.5387C68.7766 100.201 69.073 100.91 69.7657 101.669C70.4621 102.431 71.524 103.201 72.9527 103.958C75.8088 105.471 79.9896 106.855 85.2174 108.026C95.6611 110.366 110.125 111.819 126.125 111.819C142.126 111.819 156.589 110.366 167.033 108.026C172.261 106.855 176.442 105.471 179.298 103.958C180.726 103.201 181.788 102.431 182.485 101.669C183.177 100.91 183.474 100.201 183.474 99.5387C183.474 98.8764 183.177 98.1671 182.485 97.4088C181.788 96.6464 180.726 95.876 179.298 95.1194C176.442 93.6068 172.261 92.2224 167.033 91.0513C156.589 88.7119 142.126 87.2586 126.125 87.2586C110.125 87.2586 95.6611 88.7119 85.2174 91.0513C79.9896 92.2224 75.8088 93.6068 72.9527 95.1194C71.524 95.876 70.4621 96.6464 69.7657 97.4088C69.073 98.1671 68.7766 98.8764 68.7766 99.5387Z" stroke="black" stroke-width="1.4586" stroke-linejoin="round"/>
<path d="M76.6275 104.419C76.6275 104.48 76.687 104.738 77.3191 105.144C77.9111 105.524 78.8316 105.918 80.0861 106.308C82.5846 107.085 86.2373 107.794 90.7951 108.393C99.9002 109.59 112.501 110.333 126.435 110.333C140.369 110.333 152.97 109.59 162.075 108.393C166.633 107.794 170.285 107.085 172.784 106.308C174.038 105.918 174.959 105.524 175.551 105.144C176.183 104.738 176.242 104.48 176.242 104.419C176.242 104.357 176.183 104.1 175.551 103.693C174.959 103.313 174.038 102.919 172.784 102.529C170.285 101.753 166.633 101.043 162.075 100.444C152.97 99.2473 140.369 98.5047 126.435 98.5047C112.501 98.5047 99.9002 99.2473 90.7951 100.444C86.2373 101.043 82.5846 101.753 80.0861 102.529C78.8316 102.919 77.9111 103.313 77.3191 103.693C76.687 104.1 76.6275 104.357 76.6275 104.419Z" fill="black" stroke="black" stroke-width="1.4586" stroke-linejoin="round"/>
<path d="M57.6255 99.5404C57.6255 101.566 59.262 103.699 62.7478 105.787C66.1875 107.847 71.2134 109.728 77.4881 111.318C90.0263 114.494 107.387 116.467 126.59 116.467C145.793 116.467 163.153 114.494 175.691 111.318C181.966 109.728 186.992 107.847 190.432 105.787C193.917 103.699 195.554 101.566 195.554 99.5404C195.554 97.515 193.917 95.3815 190.432 93.2937C186.992 91.2335 181.966 89.3525 175.691 87.763C163.153 84.5866 145.793 82.6141 126.59 82.6141C107.387 82.6141 90.0263 84.5866 77.4881 87.763C71.2134 89.3525 66.1875 91.2335 62.7478 93.2937C59.262 95.3815 57.6255 97.515 57.6255 99.5404Z" stroke="black" stroke-width="1.4586" stroke-linejoin="round"/>
<path d="M57.627 99.6113C58.0916 107.51 59.4979 123.514 62.4715 128.346M195.562 99.624C194.942 107.368 192.681 124.299 189.708 128.388" stroke="black" stroke-width="1.4586" stroke-linejoin="round"/>
<circle r="2.8174" transform="matrix(-1 0 0 1 158.254 162.159)" fill="black"/>
<circle r="3.49981" transform="matrix(-1 0 0 1 169.348 167.683)" fill="#CCFF90"/>
<circle r="3.49981" transform="matrix(-1 0 0 1 131.504 169.683)" fill="#CCFF90"/>
<circle r="2.8174" transform="matrix(-1 0 0 1 141.343 162.688)" fill="black"/>
<path d="M155.438 171.361C155.138 181.452 145.135 179.067 144.772 171.923" stroke="black" stroke-width="1.66083" stroke-miterlimit="10" stroke-linecap="round" stroke-linejoin="round"/>
<path d="M159.593 222.041C159.837 223.185 160.523 224.811 160.87 225.932C161.714 228.651 162.741 231.288 163.584 234.007C166.275 242.689 169.251 251.089 172.55 259.55C173.637 262.338 174.94 266.454 177.923 267.744C186.272 271.354 202.267 263 201.944 278.235C201.573 289.37 168.635 310.819 159.555 299.627C149.679 288.142 138.496 250.483 131.359 225.6" stroke="black" stroke-width="1.4586" stroke-miterlimit="10" stroke-linecap="round" stroke-linejoin="round"/>
<path d="M123.528 225.595C120.633 245.148 113.139 257.022 112.485 257.925C108.445 263.503 105.299 265.995 99.0426 268.374C95.9836 269.536 90.8558 269.223 88.5431 271.933C87.1069 273.616 86.8693 276.779 87.1893 278.906C88.3499 286.609 93.1156 294.245 86.3656 300.658C84.8336 302.114 82.7874 303.288 80.6485 303.177C78.7591 303.079 77.0173 302.665 75.2455 301.942C72.7998 300.943 70.5574 299.79 68.5115 298.058C59.742 290.628 45.9337 267.663 53.6728 255.748C58.1843 248.802 74.332 248.744 81.4392 244.112C84.6373 242.028 87.0175 239.058 88.3572 235.447C88.7537 234.38 89.1409 233.332 89.3297 232.204C89.3664 231.985 90.4596 229.967 92.5067 221.566" stroke="black" stroke-width="1.4586" stroke-miterlimit="10" stroke-linecap="round" stroke-linejoin="round"/>
<path d="M159.829 222.279L131.654 225.898L135.924 240.371C145.889 226.372 150.101 228.685 159.829 222.279Z" fill="black"/>
<path d="M92.7438 221.863L88.7104 233.726C101.463 228.027 109.001 226.52 123.351 225.897L92.7438 221.863Z" fill="black"/>
<path d="M159.816 148.201L154.504 152.927" stroke="black" stroke-width="1.66083" stroke-linecap="round"/>
<path d="M138.625 148.637L144.058 153.223" stroke="black" stroke-width="1.66083" stroke-linecap="round"/>
<path d="M69.906 171.092C69.906 171.092 46.31 151.743 34.7945 104.312C34.4856 102.981 33.7901 101.77 32.7953 100.832C31.8006 99.8947 30.5509 99.2719 29.2033 99.0423C26.8954 98.6973 23.4669 97.5268 19.4697 93.8984" stroke="black" stroke-width="1.4586" stroke-miterlimit="10" stroke-linecap="round" stroke-linejoin="round"/>
<path d="M30.5229 92.6777C34.1942 88.7708 32.4974 81.2123 26.7328 75.7952C20.9683 70.3781 13.3189 69.1539 9.64759 73.0608C5.97623 76.9676 7.67309 84.5262 13.4376 89.9432C19.2022 95.3603 26.8515 96.5845 30.5229 92.6777Z" stroke="black" stroke-width="1.4586" stroke-miterlimit="10" stroke-linejoin="round"/>
<path d="M18.0799 71.4551C17.8658 69.4327 4.91083 48.1504 15.7007 40.9294C26.4906 33.7084 30.8327 64.9241 34.1042 63.4252C37.3756 61.9262 28.0537 36.1915 38.9982 35.1923C49.9428 34.193 52.9359 64.3412 52.7931 66.3754C52.6504 68.4097 32.7725 67.0475 34.5205 80.9721C41.272 89.5463 55.9973 84.6896 60.5733 77.8434C62.497 74.1902 58.2711 65.0476 52.5671 66.7323" stroke="black" stroke-width="1.4586" stroke-miterlimit="10" stroke-linejoin="round"/>
<path d="M53.0619 84.1934C52.8507 88.1913 53.1514 92.988 51.7852 96.7512C48.5328 114.407 73.158 152.041 73.158 152.041C77.796 157.329 77.7485 166.535 69.9664 171.09" stroke="black" stroke-width="1.4586" stroke-miterlimit="10" stroke-linecap="round" stroke-linejoin="round"/>
<path d="M70.7982 37.2545C76.018 52.4392 90.0368 65.0464 106.387 61.6924C124.894 57.8962 123.233 62.2142 123.233 47.9312C115.403 30.849 106.387 12.5798 75.3062 14.2401C61.0705 13.5286 70.7982 26.5777 70.7982 37.2545Z" fill="#CCFF90"/>
<path d="M152.654 6.40955C152.654 8.7682 155.734 10.6803 159.534 10.6803C163.334 10.6803 166.415 8.7682 166.415 6.40955C163.805 0.240389 163.334 2.13884 159.534 2.13884C143.875 5.69747 152.654 4.0509 152.654 6.40955Z" fill="#CCFF90"/>
<path d="M119.912 39.6246C119.912 59.8041 105.228 57.1816 127.504 57.1816C149.78 57.1816 171.16 44.3695 169.262 21.5924C164.043 3.08597 169.948 4.50969 147.671 4.50969C135.097 10.2041 118.726 21.5924 119.912 39.6246Z" fill="#CCFF90"/>
<path d="M125.132 56.2344L121.573 57.8952C123.36 77.6652 123.556 88.6124 122.997 107.957L130.826 106.771C132.226 85.9107 131.126 74.8074 125.132 56.2344Z" fill="#CCFF90"/>
<path d="M122.063 57.3856C177.375 57.1233 172.971 19.9507 163.908 1.38867C128.633 5.6941 119.472 25.737 119.467 42.3864" stroke="black" stroke-width="1.4586" stroke-miterlimit="10" stroke-linecap="round" stroke-linejoin="round"/>
<path d="M68.0115 15.8004C67.2287 36.7018 77.0872 74.3663 122.784 57.8131C121.618 40.1761 109.031 7.08188 68.0115 15.8004Z" stroke="black" stroke-width="1.4586" stroke-miterlimit="10" stroke-linecap="round" stroke-linejoin="round"/>
<path d="M88.1429 28.7066C87.7668 28.5626 87.5785 28.141 87.7225 27.7648C87.8665 27.3886 88.2881 27.2004 88.6643 27.3444L88.1429 28.7066ZM96.5018 31.2937C96.8453 31.504 96.9533 31.953 96.743 32.2965C96.5327 32.64 96.0837 32.748 95.7402 32.5376L96.5018 31.2937ZM101.481 36.4517C101.146 36.2273 101.057 35.7743 101.282 35.4398C101.506 35.1053 101.959 35.0161 102.293 35.2405L101.481 36.4517ZM95.7402 32.5376C93.1858 30.9736 90.6246 29.6564 88.1429 28.7066L88.6643 27.3444C91.2493 28.3337 93.8917 29.6956 96.5018 31.2937L95.7402 32.5376ZM121.432 57.1788C119.691 53.299 115.702 45.992 101.481 36.4517L102.293 35.2405C116.731 44.9261 120.905 52.4418 122.763 56.5816L121.432 57.1788Z" fill="black"/>
<path d="M135.492 32.1367C135.775 31.8497 136.236 31.8462 136.523 32.1288C136.81 32.4114 136.814 32.8732 136.531 33.1602L135.492 32.1367ZM122.735 56.6083C123.809 51.6804 127.847 39.8996 135.492 32.1367L136.531 33.1602C129.159 40.6465 125.205 52.1239 124.161 56.9189L122.735 56.6083Z" fill="black"/>
<path d="M130.799 106.858C132.067 98.5158 131.836 89.9766 130.884 82.2327C130.788 81.4498 130.684 80.6751 130.574 79.9096C130.475 79.2233 130.371 78.5444 130.262 77.8735C128.837 69.0802 126.606 61.6777 124.876 57.3299C124.162 56.4887 123.382 56.572 122.809 56.8794C122.347 57.1279 122.191 57.682 122.228 58.206C122.747 65.6076 123.088 72.1404 123.292 77.8735C123.317 78.5638 123.34 79.2424 123.36 79.9096C123.385 80.7 123.407 81.4743 123.426 82.2327C123.732 94.2193 123.401 102.234 122.913 107.069" stroke="black" stroke-width="1.4586" stroke-miterlimit="10" stroke-linecap="round" stroke-linejoin="round"/>
</svg>
